<?xml version="1.0" encoding="UTF-8" standalone="no"?>
<!-- Created with Inkscape (http://www.inkscape.org/) -->

<svg
   width="760"
   height="760"
   viewBox="0 0 201.08333 201.08334"
   version="1.1"
   id="svg5"
   inkscape:version="1.1.2 (0a00cf5339, 2022-02-04)"
   sodipodi:docname="quantumsecrets_logo.svg"
   xmlns:inkscape="http://www.inkscape.org/namespaces/inkscape"
   xmlns:sodipodi="http://sodipodi.sourceforge.net/DTD/sodipodi-0.dtd"
   xmlns="http://www.w3.org/2000/svg"
   xmlns:svg="http://www.w3.org/2000/svg">
  <sodipodi:namedview
     id="namedview7"
     pagecolor="#ffffff"
     bordercolor="#666666"
     borderopacity="1.0"
     inkscape:pageshadow="2"
     inkscape:pageopacity="0.0"
     inkscape:pagecheckerboard="true"
     inkscape:document-units="px"
     showgrid="false"
     showborder="true"
     inkscape:snap-global="true"
     inkscape:object-paths="true"
     inkscape:snap-center="true"
     inkscape:snap-object-midpoints="true"
     inkscape:snap-smooth-nodes="true"
     inkscape:zoom="1.4142136"
     inkscape:cx="312.18764"
     inkscape:cy="398.45467"
     inkscape:window-width="2154"
     inkscape:window-height="1630"
     inkscape:window-x="26"
     inkscape:window-y="23"
     inkscape:window-maximized="0"
     inkscape:current-layer="layer1"
     fit-margin-left="80"
     fit-margin-top="80"
     fit-margin-right="80"
     fit-margin-bottom="80"
     lock-margins="false"
     units="px"
     inkscape:showpageshadow="false">
    <inkscape:grid
       type="xygrid"
       id="grid33"
       originx="152.04622"
       originy="-141.75869" />
  </sodipodi:namedview>
  <defs
     id="defs2" />
  <g
     inkscape:label="Layer 1"
     inkscape:groupmode="layer"
     id="layer1"
     transform="translate(152.04624,-141.75868)">
    <g
       id="g4242"
       transform="translate(12.730599,-0.04832227)"
       style="fill:#ffffff">
      <path
         id="path3719"
         style="color:#000000;opacity:1;fill:#ffffff;fill-rule:evenodd;stroke-width:48.3534;-inkscape-stroke:none"
         d="m -245.00586,615.7832 -11.7168,0.33008 c -13.03177,0.91586 -25.62531,2.40777 -37.58007,5.01953 l -0.16211,0.0391 -0.16993,0.0293 c -11.12974,2.26885 -22.27849,5.5075 -33.38085,9.4336 -11.87522,4.29244 -23.41848,9.45213 -34.5254,15.43554 -10.17762,5.55258 -19.92614,11.65859 -29.02539,18.38086 l -0.0742,0.0527 -0.0742,0.0586 c -10.85273,7.89052 -21.09994,16.81207 -30.69336,26.51562 l -0.0234,0.0234 c -8.83279,9.03073 -16.98887,18.67083 -24.36719,28.84766 -6.78266,9.45025 -12.93986,19.18019 -18.21094,29.17383 l -0.0371,0.0801 -0.0449,0.082 c -6.34779,11.82323 -11.7023,24.31422 -16.14453,37.22656 -4.04632,11.97048 -7.21252,24.2189 -9.46289,36.6289 -2.00443,11.44105 -3.32671,22.85811 -3.73437,34.12696 v 0.11133 l -0.008,0.10156 c -0.59213,13.14663 0.0246,26.51241 1.59375,39.92187 1.55328,12.51462 3.95947,24.85429 7.29297,36.88086 3.03349,10.90163 6.75215,21.56902 11.16992,31.84571 l 0.0215,0.0586 0.0234,0.0586 c 4.82173,11.37657 10.68033,22.49316 17.28906,33.35938 7.21115,11.49835 15.14435,22.39565 23.87109,32.44335 l 0.0156,0.022 0.0156,0.016 c 7.34907,8.4928 15.30741,16.5066 23.76172,23.9688 l 0.0156,0.016 0.0156,0.016 c 9.30097,8.2392 19.37627,15.7881 30.01367,22.7286 11.47113,7.3395 23.42285,13.7904 35.76563,19.1621 l 0.0293,0.016 0.0293,0.01 c 9.75819,4.2745 19.89839,7.8309 30.21485,10.8516 v -98.961 c -6.03217,-2.9719 -12.05312,-6.287 -17.9375,-10.2539 -14.07536,-9.42501 -26.59256,-21.06317 -37.02735,-34.42188 -8.44823,-10.7848 -15.19412,-22.47975 -20.55273,-34.5039 l -0.10157,-0.22071 -0.0976,-0.23632 c -6.23097,-14.79602 -10.5315,-30.65346 -12.12695,-47.14063 -1.72347,-17.03909 -0.59574,-34.21174 3.1582,-50.7793 l 0.008,-0.0312 0.008,-0.0234 c 3.76861,-16.45539 10.13171,-32.20032 18.74219,-46.63086 l 0.0527,-0.0801 0.0508,-0.0898 c 8.52442,-14.02099 19.14538,-26.76518 31.57226,-37.6543 l 0.0234,-0.0156 0.0215,-0.0215 c 12.68188,-11.06045 27.04651,-20.03968 42.46875,-26.63477 l 0.0586,-0.0234 0.0586,-0.0293 c 15.39256,-6.48461 31.70987,-10.52752 48.29297,-12.03906 l 0.10352,-0.008 0.0957,-0.008 c 15.81364,-1.30628 31.77201,-0.43043 47.57617,3.0332 0.005,0 0.0103,0.007 0.0156,0.008 32.13363,6.94495 61.9122,24.03426 84.10742,48.7207 23.53226,25.87922 37.916,59.1824 40.681639,94.01563 0.807934,10.049 0.591669,20.41186 -0.603516,30.56835 -1.729296,16.31793 -6.14646,32.04815 -12.580078,46.67579 l -0.01367,0.0234 -0.0078,0.0293 c -6.367825,14.3833 -14.854465,27.69163 -25.046875,39.52344 l -0.0156,0.0137 -0.008,0.008 c -10.9942,12.72696 -23.98727,23.66371 -38.4375,32.33392 -3.96736,2.4387 -7.6013,3.7076 -11.47852,5.5938 v 98.8672 c 2.46701,-0.7265 5.39989,-1.1316 7.76563,-1.9492 l 0.26562,-0.096 0.27344,-0.082 c 11.42999,-3.6516 22.75707,-8.4139 33.93555,-13.9433 11.22633,-5.6487 22.01192,-12.0921 32.257813,-19.2969 11.049789,-7.8161 21.445062,-16.3983 30.929688,-25.7402 l 0.07422,-0.066 0.06641,-0.074 c 8.138525,-7.8828 15.762971,-16.4834 22.876953,-25.6074 7.679936,-9.8943 14.617818,-20.4113 20.816406,-31.41012 6.565005,-11.81178 12.22403,-24.03356 16.7656252,-36.5625 l 0.021484,-0.0742 0.029297,-0.0742 c 3.8816333,-10.48758 7.00579799,-21.43386 9.4941406,-32.64844 5.173e-4,-0.004 -5.172e-4,-0.005 0,-0.008 2.6654575,-12.23467 4.4010096,-24.708 5.2617188,-37.30078 0.8269848,-13.29177 0.6806929,-26.53444 -0.6191407,-39.53711 l -0.015625,-0.12695 -0.013672,-0.125 C 6.9303972,832.38849 4.9754769,820.93482 2.3105469,809.49219 -0.6505673,797.18423 -4.46428,785.13769 -9.1542969,773.48242 -14.297197,760.83446 -20.333489,748.66095 -27.328125,737.21484 l -0.05859,-0.0957 -0.05273,-0.0957 c -5.776187,-9.64955 -12.453393,-18.99818 -19.746094,-28.08008 -7.996169,-9.80886 -16.674563,-19.02056 -25.984375,-27.51172 -8.590594,-7.77517 -17.567971,-14.95749 -26.914056,-21.3125 l -0.0742,-0.0508 -0.0801,-0.0527 c -11.04089,-7.63453 -22.84047,-14.3609 -35.14649,-20.20507 -11.4443,-5.36599 -23.27603,-9.88426 -35.38085,-13.51563 -13.09647,-3.86619 -26.36764,-6.74254 -39.6543,-8.40039 l -0.11914,-0.0156 -0.125,-0.0215 c -11.16373,-1.50746 -22.65513,-2.11995 -34.32617,-2.07422 z"
         transform="scale(0.26458333)" />
      <circle
         style="opacity:1;fill:#ffffff;fill-rule:evenodd;stroke-width:0.264583"
         id="circle58-9"
         cx="-64.224174"
         cy="229.57767"
         r="30" />
      <rect
         style="opacity:1;fill:#ffffff;fill-rule:evenodd;stroke-width:0;stroke-miterlimit:4;stroke-dasharray:none"
         id="rect82-8"
         width="21.166666"
         height="76.549263"
         x="-74.807526"
         y="245.22273" />
      <path
         id="rect82-1-1"
         style="opacity:1;fill:#ffffff;fill-rule:evenodd;stroke-width:0;stroke-miterlimit:4;stroke-dasharray:none"
         d="m -48.349202,300.6053 v 5.29166 h -5.29166 v 10.58334 h 5.29166 v 5.29166 h 10.58334 v -7.9375 h -7.9375 v -5.29166 h 7.9375 v -7.9375 z" />
      <path
         id="path4030"
         style="opacity:1;fill:#ffffff;fill-rule:evenodd;stroke-width:0;stroke-miterlimit:4;stroke-dasharray:none"
         d="m -55.393986,305.90355 v 10.58334 h 3.506248 v -10.58334 z" />
    </g>
  </g>
</svg>
