<?xml version="1.0" standalone="no"?>
<!DOCTYPE svg PUBLIC "-//W3C//DTD SVG 20010904//EN"
 "http://www.w3.org/TR/2001/REC-SVG-20010904/DTD/svg10.dtd">
<svg version="1.0" xmlns="http://www.w3.org/2000/svg"
 width="700.000000pt" height="700.000000pt" viewBox="0 0 700.000000 700.000000"
 preserveAspectRatio="xMidYMid meet">
<metadata>
Created by potrace 1.14, written by Peter Selinger 2001-2017
</metadata>
<g transform="translate(0.000000,700.000000) scale(0.100000,-0.100000)"
fill="#000000" stroke="none">
<path d="M3418 6265 c-2 -1 -46 -5 -98 -9 -160 -10 -382 -52 -510 -96 -158
-53 -186 -65 -315 -126 -661 -315 -1143 -945 -1276 -1669 -27 -151 -34 -233
-34 -420 0 -272 28 -457 107 -705 222 -699 767 -1249 1476 -1491 l82 -28 0
457 0 457 -62 34 c-200 108 -404 301 -529 501 -100 160 -172 351 -205 540 -23
138 -23 353 1 475 9 50 19 100 21 112 2 12 19 67 38 121 156 458 527 808 996
939 47 13 99 26 115 28 17 3 57 9 90 14 75 12 305 12 365 1 25 -4 62 -11 82
-14 121 -19 250 -61 383 -127 121 -59 118 -57 230 -141 327 -244 529 -591 581
-1003 12 -87 8 -290 -6 -376 -6 -41 -13 -83 -15 -94 -5 -35 -52 -188 -75 -245
-83 -209 -235 -421 -403 -563 -27 -23 -55 -47 -61 -52 -26 -24 -158 -107 -200
-126 l-46 -20 0 -454 c0 -261 4 -455 9 -455 17 0 147 42 206 67 704 295 1195
858 1385 1588 67 258 86 622 46 890 -13 89 -19 119 -41 210 -13 55 -38 141
-55 190 -17 50 -35 104 -40 121 -21 65 -152 315 -220 419 -101 153 -174 241
-314 380 -370 367 -852 598 -1367 655 -84 9 -335 20 -341 15z"/>
<path d="M3316 4973 c-627 -119 -1006 -757 -806 -1356 91 -272 288 -495 542
-614 l78 -37 0 -1112 c0 -881 3 -1113 13 -1116 6 -2 172 -4 367 -4 l355 1 3
92 3 92 89 0 90 0 1 -27 c0 -15 0 -56 -1 -92 l-1 -65 180 0 c98 0 182 3 185 6
6 5 9 116 7 227 l-1 42 -137 0 -138 0 1 87 c1 49 2 90 3 93 0 3 62 6 136 5
l135 -1 1 31 c0 36 0 215 0 233 -1 9 -45 12 -186 12 l-185 0 3 -90 2 -90 -92
0 -93 0 0 839 0 839 55 22 c193 78 406 283 510 490 28 55 87 220 80 220 -3 0
0 11 5 24 11 29 24 150 23 221 0 399 -223 757 -582 936 -72 36 -188 76 -244
84 -23 4 -46 9 -51 13 -20 12 -282 8 -350 -5z"/>
</g>
</svg>
